<svg xmlns="http://www.w3.org/2000/svg" viewBox="0 0 78.2 78.2"><defs><style>.cls-1{fill:#3068b0;}</style></defs><title>caontacts_vk</title><g id="Слой_2" data-name="Слой 2"><g id="Слой_1-2" data-name="Слой 1"><path class="cls-1" d="M39.1,0A39.1,39.1,0,1,0,78.2,39.1,39.1,39.1,0,0,0,39.1,0ZM58.93,43.33a74.81,74.81,0,0,1,5.39,5.42,15.46,15.46,0,0,1,1.93,2.78c.75,1.44.07,3-1.22,3.11H57a6.18,6.18,0,0,1-5.1-2.07c-1.11-1.13-2.14-2.33-3.2-3.5a7.58,7.58,0,0,0-1.44-1.28,1.67,1.67,0,0,0-2.67.65,8.36,8.36,0,0,0-.84,3.74c-.09,1.89-.66,2.38-2.56,2.47a20.52,20.52,0,0,1-11.46-2.47A25.27,25.27,0,0,1,22,44.95a97.35,97.35,0,0,1-10.15-18.1c-.64-1.43-.17-2.19,1.4-2.22,2.61-.05,5.23,0,7.84,0a2.3,2.3,0,0,1,2.18,1.63,48.62,48.62,0,0,0,5.31,9.85,8.51,8.51,0,0,0,2,2.21,1.22,1.22,0,0,0,2.07-.61,6.82,6.82,0,0,0,.46-2.07A30.91,30.91,0,0,0,33,28.39a3,3,0,0,0-2.57-2.77c-.77-.15-.66-.43-.28-.86a2.87,2.87,0,0,1,2.46-1.22h9.05c1.42.28,1.75.92,1.94,2.36V36c0,.55.28,2.2,1.28,2.57.8.27,1.33-.38,1.81-.88a31.22,31.22,0,0,0,5.1-7.84c.61-1.24,1.14-2.53,1.65-3.81a2,2,0,0,1,2-1.4h8.71a4.61,4.61,0,0,1,.77,0c1.47.25,1.87.89,1.42,2.32A21.74,21.74,0,0,1,63,33c-1.46,2-3,4-4.45,6-1.32,1.85-1.22,2.78.43,4.38Zm0,0"/></g></g></svg>