<svg xmlns="http://www.w3.org/2000/svg" viewBox="0 0 77.57 77.57"><defs><style>.cls-1{fill:#e0398d;}</style></defs><title>caontacts_insta</title><g id="Слой_2" data-name="Слой 2"><g id="Слой_1-2" data-name="Слой 1"><path class="cls-1" d="M46.55,38.79A7.76,7.76,0,1,1,38.79,31,7.77,7.77,0,0,1,46.55,38.79Z"/><path class="cls-1" d="M49.08,19.9H28.5a8.61,8.61,0,0,0-8.6,8.6V49.08a8.61,8.61,0,0,0,8.6,8.6H49.08a8.6,8.6,0,0,0,8.59-8.6V28.5A8.6,8.6,0,0,0,49.08,19.9ZM38.79,50.62A11.83,11.83,0,1,1,50.62,38.79,11.85,11.85,0,0,1,38.79,50.62Zm14.44-22a3,3,0,0,1-2.11.87,3,3,0,1,1,2.11-.87Z"/><path class="cls-1" d="M38.79,0A38.79,38.79,0,1,0,77.57,38.79,38.79,38.79,0,0,0,38.79,0Zm23,49.08A12.69,12.69,0,0,1,49.08,61.75H28.5A12.69,12.69,0,0,1,15.82,49.08V28.5A12.7,12.7,0,0,1,28.5,15.82H49.08A12.69,12.69,0,0,1,61.75,28.5Z"/></g></g></svg>