<svg xmlns="http://www.w3.org/2000/svg" viewBox="0 0 78.2 78.2"><defs><style>.cls-1{fill:#e62d2b;}</style></defs><title>caontacts_youtube</title><g id="Слой_2" data-name="Слой 2"><g id="Слой_1-2" data-name="Слой 1"><path class="cls-1" d="M32,29.41V47.67l17.55-9.1Z"/><path class="cls-1" d="M39.1,0A39.1,39.1,0,1,0,78.2,39.1,39.1,39.1,0,0,0,39.1,0ZM65.74,52.15a7,7,0,0,1-6,5.42,185,185,0,0,1-20.67.77,185.21,185.21,0,0,1-20.68-.77,7,7,0,0,1-6-5.42c-1-4.18-1-8.74-1-13.05s0-8.87,1-13a7,7,0,0,1,6-5.43,187.64,187.64,0,0,1,20.68-.76,187.37,187.37,0,0,1,20.67.76,7,7,0,0,1,6,5.43c1,4.18,1,8.75,1,13A59.21,59.21,0,0,1,65.74,52.15Z"/></g></g></svg>