<svg xmlns="http://www.w3.org/2000/svg" viewBox="0 0 77.57 77.57"><defs><style>.cls-1{fill:#ee731b;}</style></defs><title>contacts_page_place</title><g id="Слой_2" data-name="Слой 2"><g id="Слой_1-2" data-name="Слой 1"><path class="cls-1" d="M38.79,0A38.79,38.79,0,1,0,77.57,38.79,38.78,38.78,0,0,0,38.79,0ZM55.26,38.19c-4.35,9.53-12.7,19.59-15.16,22.45a1,1,0,0,1-.73.34,1,1,0,0,1-.74-.34c-2.45-2.86-10.8-12.92-15.16-22.45A17,17,0,0,1,22,31.08a17.42,17.42,0,0,1,34.84,0A17,17,0,0,1,55.26,38.19Z"/><circle class="cls-1" cx="38.79" cy="30.46" r="7.97"/></g></g></svg>