<svg xmlns="http://www.w3.org/2000/svg" viewBox="0 0 77.57 77.57"><defs><style>.cls-1{fill:#ff5a5f;}</style></defs><title>contacts_page_phone</title><g id="Слой_2" data-name="Слой 2"><g id="Слой_1-2" data-name="Слой 1"><path class="cls-1" d="M38.79,0A38.79,38.79,0,1,0,77.57,38.79,38.79,38.79,0,0,0,38.79,0ZM59.27,56.59,56.16,59.7a5.78,5.78,0,0,1-2.23.9,36.64,36.64,0,0,1-37-37,5.65,5.65,0,0,1,.91-2.13L21,18.31a5.2,5.2,0,0,1,4.85-1.14l.65.22A6.1,6.1,0,0,1,30,21.14l1.56,5.73a5.59,5.59,0,0,1-1.28,4.91l-2.07,2.07A22,22,0,0,0,43.72,49.34l2.08-2.07A5.62,5.62,0,0,1,50.71,46l5.73,1.57a6.17,6.17,0,0,1,3.75,3.54l.22.66A5.2,5.2,0,0,1,59.27,56.59Z"/></g></g></svg>